HIERARCHY
ROOT RootJoint
{
    OFFSET   0.000000   0.000000   0.000000
    CHANNELS 6 Xposition Yposition Zposition Xrotation Yrotation Zrotation
    JOINT pelvis_lowerback
    {
        OFFSET   0.000000   0.093605   0.000000
        CHANNELS 3 Xrotation Yrotation Zrotation
        JOINT lowerback_torso
        {
            OFFSET   0.000000   0.100000   0.000000
            CHANNELS 3 Xrotation Yrotation Zrotation
            JOINT torso_head
            {
                OFFSET   0.000000   0.282350   0.000000
                CHANNELS 3 Xrotation Yrotation Zrotation
                End Site
                {
                    OFFSET   0.000000   0.192650   0.000000
                }
            }
            JOINT rTorso_Clavicle
            {
                OFFSET  -0.001000   0.157500   0.000000
                CHANNELS 3 Xrotation Yrotation Zrotation
                JOINT rShoulder
                {
                    OFFSET  -0.117647   0.000000   0.000000
                    CHANNELS 3 Xrotation Yrotation Zrotation
                    JOINT rElbow
                    {
                        OFFSET  -0.245000   0.000000   0.000000
                        CHANNELS 3 Xrotation Yrotation Zrotation
                        JOINT rWrist
                        {
                            OFFSET  -0.240000   0.000000   0.000000
                            CHANNELS 3 Xrotation Yrotation Zrotation
                            End Site
                            {
                                OFFSET  -0.116353  -0.002500   0.000000
                            }
                        }
                    }
                }
            }
            JOINT lTorso_Clavicle
            {
                OFFSET   0.001000   0.157500   0.000000
                CHANNELS 3 Xrotation Yrotation Zrotation
                JOINT lShoulder
                {
                    OFFSET   0.117647   0.000000   0.000000
                    CHANNELS 3 Xrotation Yrotation Zrotation
                    JOINT lElbow
                    {
                        OFFSET   0.245000   0.000000   0.000000
                        CHANNELS 3 Xrotation Yrotation Zrotation
                        JOINT lWrist
                        {
                            OFFSET   0.240000   0.000000   0.000000
                            CHANNELS 3 Xrotation Yrotation Zrotation
                            End Site
                            {
                                OFFSET   0.116353  -0.002500   0.000000
                            }
                        }
                    }
                }
            }
        }
    }
    JOINT rHip
    {
        OFFSET  -0.100000  -0.051395   0.000000
        CHANNELS 3 Xrotation Yrotation Zrotation
        JOINT rKnee
        {
            OFFSET   0.000000  -0.410000   0.000000
            CHANNELS 3 Xrotation Yrotation Zrotation
            JOINT rAnkle
            {
                OFFSET   0.000000  -0.390000   0.000000
                CHANNELS 3 Xrotation Yrotation Zrotation
                JOINT rToeJoint
                {
                    OFFSET   0.000000  -0.050000   0.130000
                    CHANNELS 3 Xrotation Yrotation Zrotation
                    End Site
                    {
                        OFFSET  -0.010000   0.002000   0.060000
                    }
                }
            }
        }
    }
    JOINT lHip
    {
        OFFSET   0.100000  -0.051395   0.000000
        CHANNELS 3 Xrotation Yrotation Zrotation
        JOINT lKnee
        {
            OFFSET   0.000000  -0.410000   0.000000
            CHANNELS 3 Xrotation Yrotation Zrotation
            JOINT lAnkle
            {
                OFFSET   0.000000  -0.390000   0.000000
                CHANNELS 3 Xrotation Yrotation Zrotation
                JOINT lToeJoint
                {
                    OFFSET   0.000000  -0.050000   0.130000
                    CHANNELS 3 Xrotation Yrotation Zrotation
                    End Site
                    {
                        OFFSET   0.010000   0.002000   0.060000
                    }
                }
            }
        }
    }
}
MOTION
Frames: 8
Frame Time:   0.008333
 -2.400262   0.902717   4.495160  -5.087312  -1.363305  -1.562513   6.773482  -1.643778  -1.211405   6.022646   0.114112   1.764483   0.394632   0.182577   1.363211   2.063535   3.532705  11.054116  10.080851  14.541795  46.444765   0.000026  17.049734  -0.000074  10.085364   3.467299   2.217233   3.300039  -1.826075 -11.927804  12.316051 -12.235001 -46.693181  -0.000003 -16.958045   0.000007   9.860536  -3.671322  -2.080970 -10.495013   2.208675  -4.708894  13.235892  -0.000808   0.000439  -3.623998  -4.347860   4.611156  -1.931322  -0.000029  -0.000001  15.699957  -1.746251   4.325551   8.583002  -0.000365   0.000046 -15.642405  -0.721377   1.015275  -5.779364  -0.000598  -0.001300
 -2.401596   0.902835   4.497249  -5.033814  -1.358197  -1.546872   6.730462  -1.627518  -1.208159   6.033591   0.092105   1.789302   0.432334   0.177109   1.380442   2.046702   3.545196  11.045493  10.126786  14.581089  46.426033   0.000046  17.115610  -0.000103  10.121421   3.458343   2.240793   3.291224  -1.847244 -11.981147  12.371240 -12.183047 -46.712311  -0.000010 -16.942180   0.000003   9.857300  -3.645100  -2.148531 -10.576084   2.174068  -4.632596  13.551384  -0.000908   0.000324  -3.707376  -4.344371   4.508860  -1.855285  -0.000007  -0.000020  15.730119  -1.800741   4.408823   8.664718  -0.000363   0.000012 -15.419690  -0.649374   0.770849  -6.339377  -0.001256  -0.001153
 -2.402941   0.902954   4.499358  -4.980040  -1.351870  -1.524373   6.690692  -1.615142  -1.202422   6.044419   0.067012   1.810561   0.471730   0.172583   1.396322   2.030056   3.557224  11.037550  10.168436  14.619377  46.409665   0.000064  17.179153  -0.000122  10.156329   3.463609   2.266025   3.276581  -1.872588 -12.034004  12.417455 -12.139202 -46.730953  -0.000013 -16.929376  -0.000001   9.854346  -3.622595  -2.211432 -10.653073   2.141208  -4.563206  13.861695  -0.000983   0.000241  -3.784670  -4.340353   4.411664  -1.793577   0.000005  -0.000031  15.758668  -1.851666   4.485069   8.748479  -0.000362  -0.000012 -15.188632  -0.585071   0.541943  -6.919592  -0.001729  -0.001048
 -2.404306   0.903069   4.501490  -4.923786  -1.345671  -1.501932   6.652948  -1.606477  -1.191341   6.053153   0.040671   1.832588   0.509051   0.168418   1.411458   2.014012   3.568831  11.029901  10.206895  14.655537  46.394264   0.000081  17.238852  -0.000131  10.189644   3.473143   2.290713   3.258827  -1.899736 -12.085561  12.457088 -12.101550 -46.749688  -0.000013 -16.919224  -0.000003   9.851322  -3.609374  -2.270408 -10.725765   2.110245  -4.493025  14.160780  -0.001036   0.000183  -3.852579  -4.336453   4.321944  -1.737150   0.000010  -0.000037  15.785749  -1.897836   4.561307   8.832206  -0.000360  -0.000027 -14.957851  -0.526441   0.331197  -7.505944  -0.002018  -0.000970
 -2.405688   0.903177   4.503640  -4.864422  -1.340701  -1.481093   6.617121  -1.600865  -1.175320   6.059623   0.013864   1.856325   0.543889   0.164543   1.426124   1.998628   3.580035  11.022628  10.242508  14.689536  46.379646   0.000095  17.294727  -0.000133  10.221494   3.483776   2.314204   3.239180  -1.927686 -12.135062  12.491496 -12.068790 -46.767963  -0.000013 -16.911096  -0.000005   9.848237  -3.603890  -2.325709 -10.795209   2.080564  -4.420413  14.448445  -0.001070   0.000141  -3.911628  -4.332874   4.239629  -1.685314   0.000010  -0.000040  15.811361  -1.939057   4.638908   8.915001  -0.000358  -0.000037 -14.729073  -0.472076   0.137490  -8.094392  -0.002158  -0.000908
 -2.407087   0.903278   4.505805  -4.801883  -1.337290  -1.462224   6.583416  -1.597861  -1.154964   6.064244  -0.013026   1.881837   0.576323   0.160924   1.440348   1.983906   3.590835  11.015763  10.275504  14.721474  46.365771   0.000106  17.346979  -0.000130  10.251960   3.494678   2.336388   3.218314  -1.955900 -12.182014  12.521552 -12.040064 -46.785361  -0.000011 -16.904562  -0.000006   9.845151  -3.604204  -2.377265 -10.862001   2.051801  -4.345115  14.725149  -0.001090   0.000110  -3.962505  -4.329699   4.164333  -1.637712   0.000006  -0.000042  15.835491  -1.975513   4.718083   8.996543  -0.000354  -0.000043 -14.502784  -0.421231  -0.040301  -8.683035  -0.002184  -0.000857
 -2.408500   0.903372   4.507983  -4.736234  -1.335395  -1.445382   6.552060  -1.597119  -1.130794   6.067516  -0.039774   1.908989   0.606529   0.157535   1.454113   1.969862   3.601204  11.009271  10.306105  14.751441  46.352594   0.000116  17.395819  -0.000124  10.281105   3.505561   2.357306   3.196676  -1.984042 -12.226178  12.547892 -12.014757 -46.801657  -0.000010 -16.899321  -0.000007   9.842106  -3.608880  -2.425050 -10.926526   2.023766  -4.267253  14.991443  -0.001098   0.000087  -4.005881  -4.326947   4.095597  -1.594006   0.000001  -0.000043  15.858099  -2.007540   4.798762   9.076675  -0.000350  -0.000046 -14.279181  -0.373454  -0.203233  -9.270570  -0.002125  -0.000812
 -2.410024   0.903521   4.510212  -4.665801  -1.323449  -1.420625   6.495825  -1.571012  -1.121754   6.090980  -0.081233   1.937702   0.684431   0.162682   1.464022   1.982829   3.616243  11.004038  10.337765  14.787146  46.326321   0.000149  17.489007  -0.000173  10.310989   3.486092   2.407299   3.166827  -2.029725 -12.273795  12.531267 -11.979940 -46.803684  -0.000005 -16.871450  -0.000006   9.839398  -3.585753  -2.494421 -10.990473   1.987008  -4.187930  15.268509  -0.001140   0.000077  -4.123211  -4.326910   3.979423  -1.509217   0.000017  -0.000048  15.859470  -2.050493   4.891954   9.180927  -0.000382  -0.000047 -13.992404  -0.337621  -0.489621  -9.962500  -0.002781  -0.000858
